<?xml version="1.0" encoding="utf-8"?>
<!-- Generator: Adobe Illustrator 23.0.6, SVG Export Plug-In . SVG Version: 6.00 Build 0)  -->
<svg version="1.1" id="Capa_1" xmlns="http://www.w3.org/2000/svg" xmlns:xlink="http://www.w3.org/1999/xlink" x="0px" y="0px"
	 viewBox="0 0 141.7 141.7" style="enable-background:new 0 0 141.7 141.7;" xml:space="preserve">
<style type="text/css">
	.st0{fill:#959EAF;}
</style>
<g>
	<path class="st0" d="M100.4,76.1l-19-10.5c-0.2-0.1-0.3-0.2-0.4-0.3L67.2,53c-0.1-0.1-0.1-0.1-0.2-0.2l-3.8-4.7
		c-0.5-0.6-0.6-1.4-0.1-2c0.6-0.8,1.8-0.8,2.4,0l3.5,4.3c0.2,0.3,0.5,0.6,0.8,0.8l0.2,0.1c0.5,0.5,1.3,0.6,1.9,0.3
		c1.4-0.6,3.6-1.5,3.6-1.5c1.9-0.8,3.9-1,5.9-0.5l16.2,3.7c0.9,0.2,1.5,0.9,1.7,1.7l0.1,0.6c0.2,1,1.2,1.7,2.2,1.6
		c1.2-0.1,2.5-0.2,3.8-0.2c3,0,5.9,0.4,8.7,1.1c1.9,0.5,3.6-1,3.6-2.9l-0.4-9.8c-0.3-2.2-1.7-4.1-3.7-5.1L66.7,16.8
		c-2.5-1.2-5.3-1.5-7.9-0.7l-50.4,15c-3,0.9-5,3.6-5,6.7L3.2,69.3c0,3.8,2.7,7.1,6.4,7.9l21.6,4.3c0.8,0.2,1.6,0.2,2.5,0.2l28.5-1.5
		c1.3-0.1,2.6,0.1,3.9,0.5c5.5,1.7,21.6,6.4,26.6,6.4c3.4,0,6.4-2.1,8.5-4.2C103.3,80.9,102.9,77.5,100.4,76.1z"/>
	<g>
		<path class="st0" d="M73.7,82.9c1.9,0.5,3.9,1.1,5.9,1.6c1.9-5.8,5.6-10.7,10.5-14l-5.9-3.2C79.4,71.3,75.7,76.7,73.7,82.9z"/>
		<path class="st0" d="M105.4,59.7c-6.8,0-13.2,2.1-18.4,5.6l6.2,3.4c3.7-1.9,7.8-2.9,12.2-2.9c14.9,0,27,12.1,27,27s-12.1,27-27,27
			s-27-12.1-27-27c0-1.9,0.2-3.7,0.5-5.4c-2-0.5-4-1.1-5.9-1.6c-0.5,2.3-0.8,4.6-0.8,7c0,18.3,14.8,33.2,33.2,33.2
			c18.3,0,33.2-14.8,33.2-33.2C138.5,74.6,123.7,59.7,105.4,59.7z"/>
	</g>
	<g>
		<path class="st0" d="M107.4,82.9c2.9,0,6,0.1,9.3,0.3c0.7,0.1,1.4-0.5,1.4-1.3v-5.5c0-0.6-0.4-1.1-1-1.2c-2.6-0.6-5-0.9-7.2-1.1
			c-0.7-0.1-1.2-0.6-1.2-1.3v-1.4c0-0.7-0.6-1.3-1.3-1.3h-3c-0.7,0-1.3,0.6-1.3,1.3V73c0,0.4-0.2,0.8-0.5,1c1.6,1.1,2.6,2.8,2.8,4.8
			c0.2,1.5-0.1,3-0.7,4.3C105.4,83,106.3,82.9,107.4,82.9z"/>
		<path class="st0" d="M100.3,76.2l-1.5-0.8c-1.3,0.6-2.3,1.3-3.2,2.2c-1.7,1.8-2.5,4.4-2.5,7.7V87c0,0.1,0,0.1,0,0.2
			c3.2-0.2,6-2.2,8.1-4.2C103.3,80.9,102.8,77.5,100.3,76.2z"/>
		<path class="st0" d="M109.2,88.8h-3.4c-2.2,0-3.3-0.9-3.3-2.6v-0.4c-3,2.7-6.1,4.1-9.1,4.3c0.4,2.4,1.3,4.2,2.7,5.5
			c2,1.8,5,2.7,9.1,2.7h2.7c0.7,0,1.4,0.2,1.9,0.6s0.8,0.9,0.8,1.7v0.6c0,1-0.4,1.6-1.2,2c-0.8,0.4-2.1,0.6-3.8,0.6
			c-3.8,0-7.3-0.1-10.3-0.3c-0.7-0.1-1.4,0.5-1.4,1.3v5.5c0,0.6,0.4,1.1,1,1.2c2.3,0.5,4.7,0.9,7.3,1.1c0.7,0.1,1.2,0.6,1.2,1.3v1.9
			c0,0.7,0.6,1.3,1.3,1.3h3c0.7,0,1.3-0.6,1.3-1.3v-2c0-0.7,0.5-1.2,1.2-1.3c3.2-0.3,5.6-1.3,7.3-2.8c1.9-1.7,2.8-4.6,2.8-8.8v-1.7
			c0-3.1-0.9-5.5-2.8-7.5C115.3,89.7,112.6,88.8,109.2,88.8z"/>
	</g>
</g>
</svg>
