<?xml version="1.0" encoding="utf-8"?>
<!-- Generator: Adobe Illustrator 23.0.6, SVG Export Plug-In . SVG Version: 6.00 Build 0)  -->
<svg version="1.1" id="Capa_1" xmlns="http://www.w3.org/2000/svg" xmlns:xlink="http://www.w3.org/1999/xlink" x="0px" y="0px"
	 viewBox="0 0 141.7 141.7" style="enable-background:new 0 0 141.7 141.7;" xml:space="preserve">
<style type="text/css">
	.st0{fill:#959EAF;}
</style>
<g>
	<path class="st0" d="M124.5,96.3c-2.6,0.2-16.3,1.6-23.8,2.8c-0.9,0.1-1.6,0.7-2.1,1.4c-0.1,0.2-0.3,0.5-0.5,0.7
		c-2.1,2.9-5.1,3.9-8.2,3.9c-6,0-12.2-3.7-12.6-3.9L66,94.9l0,0l-16-3.1c-1.1-0.2-2-1.2-1.8-2.3c0.1-1.2,1.3-2.1,2.5-1.8l16.5,3.2
		c0.2,0,0.4,0.1,0.6,0.2l9.6,5.4c-0.4-0.5,10.6,7,15.9,2.9c1.9-1.4,5-7.6,1-11.6c-3.9-3.9-22-18.1-29-23.5c-1.6-1.2-3.6-1.8-5.6-1.7
		L6.1,64.9c-2.8,0.1-5,2.4-5,5.3l0.1,28.6c0,3.4,2.1,6.4,5.2,7.7l46.2,18.7c2.3,0.9,4.7,1.2,7.1,0.8l74.2-13.1
		C146.7,109.4,139.9,95.2,124.5,96.3z"/>
	<path class="st0" d="M103.3,15.7c-18.3,0-33.2,14.8-33.2,33.2C70.1,67.2,85,82,103.3,82s33.2-14.8,33.2-33.2
		C136.5,30.5,121.6,15.7,103.3,15.7z M103.3,75.9c-14.9,0-27-12.1-27-27s12.1-27,27-27s27,12.1,27,27S118.2,75.9,103.3,75.9z"/>
	<g>
		<path class="st0" d="M115.1,47.6c1.9,1.9,2.8,4.4,2.8,7.5v1.7c0,4.1-0.9,7-2.8,8.8c-1.7,1.5-4.1,2.5-7.3,2.8
			c-0.7,0.1-1.2,0.6-1.2,1.3v2c0,0.7-0.6,1.3-1.3,1.3h-3c-0.7,0-1.3-0.6-1.3-1.3v-1.9c0-0.7-0.5-1.2-1.2-1.3c-2.6-0.2-5-0.6-7.3-1.1
			c-0.6-0.1-1-0.7-1-1.2v-5.5c0-0.7,0.6-1.3,1.4-1.3c3.1,0.2,6.5,0.3,10.3,0.3c1.7,0,3-0.2,3.8-0.6c0.8-0.4,1.2-1.1,1.2-2v-0.6
			c0-0.7-0.3-1.3-0.8-1.7s-1.1-0.6-1.9-0.6h-2.7c-4.1,0-7.1-0.9-9.1-2.7s-3-4.7-3-8.7v-1.7c0-3.3,0.9-5.8,2.6-7.7
			c1.5-1.6,3.7-2.7,6.4-3.2c0.6-0.1,1.1-0.6,1.1-1.2v-1.6c0-0.7,0.6-1.3,1.3-1.3h3c0.7,0,1.3,0.6,1.3,1.3v1.4c0,0.7,0.5,1.2,1.2,1.3
			c2.2,0.2,4.5,0.6,7.2,1.1c0.6,0.1,1,0.7,1,1.2v5.5c0,0.7-0.6,1.3-1.4,1.3c-3.3-0.2-6.4-0.4-9.3-0.4c-1.6,0-2.9,0.2-3.7,0.6
			c-0.8,0.4-1.2,1.1-1.2,2.2v0.5c0,1.7,1.1,2.6,3.3,2.6h3.4C110.6,44.8,113.2,45.7,115.1,47.6z"/>
	</g>
</g>
</svg>
