<?xml version="1.0" encoding="utf-8"?>
<!-- Generator: Adobe Illustrator 23.0.6, SVG Export Plug-In . SVG Version: 6.00 Build 0)  -->
<svg version="1.1" id="Capa_1" xmlns="http://www.w3.org/2000/svg" xmlns:xlink="http://www.w3.org/1999/xlink" x="0px" y="0px"
	 viewBox="0 0 141.7 141.7" style="enable-background:new 0 0 141.7 141.7;" xml:space="preserve">
<style type="text/css">
	.st0{fill:#959EAF;}
</style>
<g>
	<ellipse class="st0" cx="112.1" cy="58" rx="18.5" ry="18.2"/>
	<ellipse class="st0" cx="71.3" cy="39.4" rx="23.6" ry="23.2"/>
	<path class="st0" d="M71.3,66.5L71.3,66.5c-6.6,0-12.9,3.5-18.2,9c-1.4,1.4-0.4,3.8,1.6,3.8h15.9c6.8,0,12.4,5.5,12.4,12.2v27.4
		c0,1.4-0.3,2.8-0.9,4c-0.7,1.5,0.4,3.2,2,3.2h15.2c4.4,0,7.9-3.5,7.9-7.8v-0.8C107.3,97.9,91.2,66.5,71.3,66.5z"/>
	<g>
		<path class="st0" d="M112.1,79.2L112.1,79.2c-3.7,0-7.2,1.4-10.4,3.7c-1,0.7-1.2,2-0.6,3.1c5.7,10.1,9.3,21.9,9.3,31.5v3
			c0,0.9-0.1,1.7-0.4,2.5c-0.5,1.5,0.7,3,2.3,3h21.2c3.8,0,6.8-3,6.8-6.7l0,0C140.3,103.9,127.7,79.2,112.1,79.2z"/>
	</g>
	<path class="st0" d="M79.9,89.2c0-1.9-0.8-3.6-2-4.9v-0.1h-0.1c-1.3-1.2-3-2-4.9-2H8.5c-1.9,0-3.7,0.8-4.9,2H3.5v0.1
		c-1.3,1.3-2,3-2,4.9v29.6c0,1.9,0.8,3.6,2,4.9v0.1h0.1c1.3,1.2,3,2,4.9,2h64.4c1.9,0,3.7-0.8,4.9-2h0.1v-0.1c1.3-1.3,2-3,2-4.9
		V89.2z M74.5,113.1c-4.2,0-7.5,3.3-7.5,7.4v1.3H14.3v-1.3c0-4.1-3.4-7.4-7.5-7.4H5.5V95h1.3c4.2,0,7.5-3.3,7.5-7.4v-1.3H67v1.3
		c0,4.1,3.4,7.4,7.5,7.4h1.3v18.1H74.5z"/>
	<g>
		<path class="st0" d="M40.9,89.7c-8.1,0-14.6,6.4-14.6,14.4s6.5,14.4,14.6,14.4s14.6-6.4,14.6-14.4C55.6,96.2,49,89.7,40.9,89.7z
			 M40.9,115.9c-6.6,0-11.9-5.3-11.9-11.7s5.3-11.7,11.9-11.7s11.9,5.3,11.9,11.7S47.5,115.9,40.9,115.9z"/>
		<g>
			<path class="st0" d="M45.6,103.4c0.8,0.8,1.2,1.9,1.2,3.2v0.7c0,1.8-0.4,3.1-1.2,3.8c-0.7,0.7-1.8,1.1-3.2,1.2
				c-0.3,0-0.5,0.3-0.5,0.5v0.8c0,0.3-0.3,0.6-0.6,0.6H40c-0.3,0-0.6-0.2-0.6-0.6v-0.8c0-0.3-0.2-0.5-0.5-0.5
				c-1.1-0.1-2.2-0.3-3.2-0.5c-0.3-0.1-0.4-0.3-0.4-0.5V109c0-0.3,0.3-0.6,0.6-0.5c1.4,0.1,2.9,0.2,4.6,0.2c0.8,0,1.3-0.1,1.7-0.3
				c0.4-0.2,0.5-0.5,0.5-0.9v-0.3c0-0.3-0.1-0.6-0.3-0.7c-0.2-0.2-0.5-0.3-0.8-0.3h-1.2c-1.8,0-3.1-0.4-4-1.2
				c-0.9-0.8-1.3-2-1.3-3.8v-0.7c0-1.4,0.4-2.5,1.1-3.3c0.7-0.7,1.6-1.2,2.8-1.4c0.3,0,0.5-0.3,0.5-0.5v-0.7c0-0.3,0.3-0.6,0.6-0.6
				h1.3c0.3,0,0.6,0.2,0.6,0.6v0.6c0,0.3,0.2,0.5,0.5,0.5c1,0.1,2,0.2,3.2,0.5c0.3,0.1,0.4,0.3,0.4,0.5v2.4c0,0.3-0.3,0.6-0.6,0.5
				c-1.5-0.1-2.8-0.2-4.1-0.2c-0.7,0-1.3,0.1-1.6,0.3c-0.4,0.2-0.5,0.5-0.5,1v0.2c0,0.8,0.5,1.1,1.5,1.1h1.5
				C43.6,102.1,44.8,102.5,45.6,103.4z"/>
		</g>
	</g>
</g>
</svg>
