<?xml version="1.0" encoding="utf-8"?>
<!-- Generator: Adobe Illustrator 23.0.6, SVG Export Plug-In . SVG Version: 6.00 Build 0)  -->
<svg version="1.1" id="Capa_1" xmlns="http://www.w3.org/2000/svg" xmlns:xlink="http://www.w3.org/1999/xlink" x="0px" y="0px"
	 viewBox="0 0 141.7 141.7" style="enable-background:new 0 0 141.7 141.7;" xml:space="preserve">
<style type="text/css">
	.st0{fill:#959EAF;}
</style>
<g>
	<path class="st0" d="M9,67.2h35.8c2.2,0,4-1.8,4-4V40.5c0-2.2-1.8-4-4-4H20.4c-1.2,0-2.2,0.7-2.7,1.7L6.3,62.9
		c-0.4,0.9-0.4,2,0.2,2.9C7,66.7,8,67.2,9,67.2z M14.4,59.7l6.3-13.6c1-2.3,3.3-3.7,5.8-3.7H32c2.2,0,3.9,1.8,3.9,3.9v13.8
		c0,0.6-0.5,1-1,1H15.3C14.5,61.2,14.1,60.4,14.4,59.7z"/>
	<path class="st0" d="M28.4,96.8c-7.7,0-14,6.3-14,14s6.3,14,14,14s14-6.3,14-14S36.1,96.8,28.4,96.8z M28.4,117.7c-3.9,0-7-3.1-7-7
		s3.1-7,7-7s7,3.1,7,7S32.2,117.7,28.4,117.7z"/>
	<path class="st0" d="M131.5,110.7H128c-0.2,0-0.4,0.2-0.3,0.4c0.2,1,0.1,2.8-0.1,3.8c0,0.2,0.1,0.4,0.3,0.4c1.1,0,3.8,0,3.8,0
		c1.4,0,2.4-1.2,2.3-2.5C133.9,111.6,132.7,110.7,131.5,110.7z"/>
	<path class="st0" d="M92.9,112.5c0-1-0.8-1.8-1.7-1.8H47.4c-0.9,0-1.6,0.7-1.7,1.6c0,0.4-0.1,0.7-0.1,1.1c-0.2,1,0.7,2,1.7,2h43.9
		c1,0,1.8-0.9,1.7-1.9C92.9,113.2,92.9,112.9,92.9,112.5L92.9,112.5z"/>
	<path class="st0" d="M110.2,98.5c-7.7,0-14,6.3-14,14s6.3,14,14,14s14-6.3,14-14S118,98.5,110.2,98.5z M110.2,119.5
		c-3.9,0-7-3.1-7-7s3.1-7,7-7s7,3.1,7,7S114.1,119.5,110.2,119.5z"/>
	<path class="st0" d="M47,106.2c1.1-1,1.8-2.4,1.8-4V77.8c0-3.7-3-6.6-6.6-6.6h-32c-3.7,0-6.6,3-6.6,6.6V101c0,3.7,3,6.6,6.6,6.6
		h0.2c0.6,0,1.1-0.4,1.2-1c1.9-7.5,8.7-13.1,16.8-13.1c7.8,0,14.3,5.1,16.6,12.1C45.2,106.5,46.3,106.8,47,106.2z"/>
	<path class="st0" d="M128.5,15.2H62.3c-5.4,0-9.8,4.4-9.8,9.8v72.8c0,5.4,4.4,9.8,9.8,9.8h29.8c0.9,0,1.7-0.5,2.1-1.4
		c2.6-6.4,8.8-10.9,16.1-10.9c7.3,0,13.6,4.5,16.1,10.9c0.3,0.8,1.2,1.4,2.1,1.4c5.4,0,9.8-4.4,9.8-9.8V25
		C138.2,19.6,133.9,15.2,128.5,15.2z"/>
</g>
</svg>
